<svg width="73" height="16" viewBox="0 0 73 16" fill="none" xmlns="http://www.w3.org/2000/svg">
<path d="M3.22 8.06C3.22 8.74 3.3 9.35333 3.46 9.9C3.63333 10.4467 3.87333 10.92 4.18 11.32C4.5 11.7067 4.88667 12.0067 5.34 12.22C5.79333 12.4333 6.31333 12.54 6.9 12.54C7.47333 12.54 7.98667 12.4333 8.44 12.22C8.90667 12.0067 9.29333 11.7067 9.6 11.32C9.92 10.92 10.16 10.4467 10.32 9.9C10.4933 9.35333 10.58 8.74 10.58 8.06C10.58 7.38 10.4933 6.76667 10.32 6.22C10.16 5.66 9.92 5.18667 9.6 4.8C9.29333 4.4 8.90667 4.09333 8.44 3.88C7.98667 3.66667 7.47333 3.56 6.9 3.56C6.31333 3.56 5.79333 3.67333 5.34 3.9C4.88667 4.11333 4.5 4.42 4.18 4.82C3.87333 5.20667 3.63333 5.68 3.46 6.24C3.3 6.78667 3.22 7.39333 3.22 8.06ZM13.8 8.06C13.8 9.24667 13.62 10.2933 13.26 11.2C12.9133 12.0933 12.4333 12.8467 11.82 13.46C11.2067 14.06 10.4733 14.5133 9.62 14.82C8.78 15.1267 7.87333 15.28 6.9 15.28C5.95333 15.28 5.06 15.1267 4.22 14.82C3.38 14.5133 2.64667 14.06 2.02 13.46C1.39333 12.8467 0.9 12.0933 0.54 11.2C0.18 10.2933 1.49012e-08 9.24667 1.49012e-08 8.06C1.49012e-08 6.87333 0.186667 5.83333 0.56 4.94C0.933333 4.03333 1.43333 3.27333 2.06 2.66C2.7 2.04667 3.43333 1.58667 4.26 1.28C5.1 0.973332 5.98 0.819999 6.9 0.819999C7.84667 0.819999 8.74 0.973332 9.58 1.28C10.42 1.58667 11.1533 2.04667 11.78 2.66C12.4067 3.27333 12.9 4.03333 13.26 4.94C13.62 5.83333 13.8 6.87333 13.8 8.06ZM25.7008 15C24.8074 13.4133 23.8408 11.8467 22.8008 10.3C21.7608 8.75333 20.6541 7.29333 19.4808 5.92V15H16.4008V1.14H18.9408C19.3808 1.58 19.8674 2.12 20.4008 2.76C20.9341 3.4 21.4741 4.08667 22.0208 4.82C22.5808 5.54 23.1341 6.29333 23.6808 7.08C24.2274 7.85333 24.7408 8.6 25.2208 9.32V1.14H28.3208V15H25.7008ZM31.518 15V1.14H40.798V3.76H34.638V6.66H40.118V9.28H34.638V15H31.518ZM43.0023 1.14H46.1223V15H43.0023V1.14ZM53.3905 0.979999C55.4705 0.979999 57.0638 1.35333 58.1705 2.1C59.2771 2.83333 59.8305 3.98 59.8305 5.54C59.8305 6.51333 59.6038 7.30667 59.1505 7.92C58.7105 8.52 58.0705 8.99333 57.2305 9.34C57.5105 9.68667 57.8038 10.0867 58.1105 10.54C58.4171 10.98 58.7171 11.4467 59.0105 11.94C59.3171 12.42 59.6105 12.9267 59.8905 13.46C60.1705 13.98 60.4305 14.4933 60.6705 15H57.1705C56.9171 14.5467 56.6571 14.0867 56.3905 13.62C56.1371 13.1533 55.8705 12.7 55.5905 12.26C55.3238 11.82 55.0571 11.4067 54.7905 11.02C54.5238 10.62 54.2571 10.26 53.9905 9.94H52.4505V15H49.3305V1.34C50.0105 1.20667 50.7105 1.11333 51.4305 1.06C52.1638 1.00667 52.8171 0.979999 53.3905 0.979999ZM53.5705 3.64C53.3438 3.64 53.1371 3.64667 52.9505 3.66C52.7771 3.67333 52.6105 3.68667 52.4505 3.7V7.46H53.3305C54.5038 7.46 55.3438 7.31333 55.8505 7.02C56.3571 6.72667 56.6105 6.22667 56.6105 5.52C56.6105 4.84 56.3505 4.36 55.8305 4.08C55.3238 3.78667 54.5705 3.64 53.5705 3.64ZM62.6703 15V1.14H72.0303V3.76H65.7903V6.48H71.3303V9.04H65.7903V12.38H72.4903V15H62.6703Z" fill="white"/>
</svg>
